<?xml version="1.0" encoding="UTF-8"?>
<svg width="400" height="400" viewBox="0 0 400 400" fill="none" xmlns="http://www.w3.org/2000/svg">
  <rect width="400" height="400" fill="#E5E7EB"/>
  <path d="M200 150C177.909 150 160 167.909 160 190C160 212.091 177.909 230 200 230C222.091 230 240 212.091 240 190C240 167.909 222.091 150 200 150ZM200 220C183.458 220 170 206.542 170 190C170 173.458 183.458 160 200 160C216.542 160 230 173.458 230 190C230 206.542 216.542 220 200 220Z" fill="#9CA3AF"/>
  <path d="M200 170C188.954 170 180 178.954 180 190C180 201.046 188.954 210 200 210C211.046 210 220 201.046 220 190C220 178.954 211.046 170 200 170Z" fill="#9CA3AF"/>
  <path d="M200 100C155.817 100 120 135.817 120 180C120 224.183 155.817 260 200 260C244.183 260 280 224.183 280 180C280 135.817 244.183 100 200 100ZM200 250C161.34 250 130 218.66 130 180C130 141.34 161.34 110 200 110C238.66 110 270 141.34 270 180C270 218.66 238.66 250 200 250Z" fill="#9CA3AF"/>
</svg> 